<svg xmlns="http://www.w3.org/2000/svg" width="360" height="220" viewBox="0 0 360 220">
<rect x="0" y="0" width="360" height="220" fill="#593b43" opacity="1"/>
<rect x="3" y="3" width="354" height="214" fill="none" stroke="#242b32" stroke-width="5"/>
<rect x="9" y="9" width="342" height="202" fill="none" stroke="#ac9066" stroke-width="2"/>
<rect x="16" y="16" width="328" height="188" fill="none" stroke="#85745b" stroke-width="1"/>
<rect x="27" y="27" width="306" height="166" fill="none" stroke="#272d36" stroke-width="7"/>
<rect x="32" y="32" width="296" height="156" fill="none" stroke="#b09770" stroke-width="1"/>
<path d="M37 21l5 -4 5 4 -5 4z" fill="none" stroke="#c0a075" opacity="0.65" stroke-width="1"/>
<path d="M37 199l5 -4 5 4 -5 4z" fill="none" stroke="#c0a075" opacity="0.65" stroke-width="1"/>
<path d="M65 21l5 -4 5 4 -5 4z" fill="none" stroke="#c0a075" opacity="0.65" stroke-width="1"/>
<path d="M65 199l5 -4 5 4 -5 4z" fill="none" stroke="#c0a075" opacity="0.65" stroke-width="1"/>
<path d="M93 21l5 -4 5 4 -5 4z" fill="none" stroke="#c0a075" opacity="0.65" stroke-width="1"/>
<path d="M93 199l5 -4 5 4 -5 4z" fill="none" stroke="#c0a075" opacity="0.65" stroke-width="1"/>
<path d="M121 21l5 -4 5 4 -5 4z" fill="none" stroke="#c0a075" opacity="0.65" stroke-width="1"/>
<path d="M121 199l5 -4 5 4 -5 4z" fill="none" stroke="#c0a075" opacity="0.65" stroke-width="1"/>
<path d="M149 21l5 -4 5 4 -5 4z" fill="none" stroke="#c0a075" opacity="0.65" stroke-width="1"/>
<path d="M149 199l5 -4 5 4 -5 4z" fill="none" stroke="#c0a075" opacity="0.65" stroke-width="1"/>
<path d="M177 21l5 -4 5 4 -5 4z" fill="none" stroke="#c0a075" opacity="0.65" stroke-width="1"/>
<path d="M177 199l5 -4 5 4 -5 4z" fill="none" stroke="#c0a075" opacity="0.65" stroke-width="1"/>
<path d="M205 21l5 -4 5 4 -5 4z" fill="none" stroke="#c0a075" opacity="0.65" stroke-width="1"/>
<path d="M205 199l5 -4 5 4 -5 4z" fill="none" stroke="#c0a075" opacity="0.65" stroke-width="1"/>
<path d="M233 21l5 -4 5 4 -5 4z" fill="none" stroke="#c0a075" opacity="0.65" stroke-width="1"/>
<path d="M233 199l5 -4 5 4 -5 4z" fill="none" stroke="#c0a075" opacity="0.65" stroke-width="1"/>
<path d="M261 21l5 -4 5 4 -5 4z" fill="none" stroke="#c0a075" opacity="0.65" stroke-width="1"/>
<path d="M261 199l5 -4 5 4 -5 4z" fill="none" stroke="#c0a075" opacity="0.65" stroke-width="1"/>
<path d="M289 21l5 -4 5 4 -5 4z" fill="none" stroke="#c0a075" opacity="0.65" stroke-width="1"/>
<path d="M289 199l5 -4 5 4 -5 4z" fill="none" stroke="#c0a075" opacity="0.65" stroke-width="1"/>
<path d="M317 21l5 -4 5 4 -5 4z" fill="none" stroke="#c0a075" opacity="0.65" stroke-width="1"/>
<path d="M317 199l5 -4 5 4 -5 4z" fill="none" stroke="#c0a075" opacity="0.65" stroke-width="1"/>
<path d="M60 45l10 9 -10 9 -10 -9zM45 54h30M60 40v28" fill="none" stroke="#b69b76" opacity="0.25" stroke-width="1"/>
<path d="M60 101l10 9 -10 9 -10 -9zM45 110h30M60 96v28" fill="none" stroke="#b69b76" opacity="0.25" stroke-width="1"/>
<path d="M60 157l10 9 -10 9 -10 -9zM45 166h30M60 152v28" fill="none" stroke="#b69b76" opacity="0.25" stroke-width="1"/>
<path d="M132 45l10 9 -10 9 -10 -9zM117 54h30M132 40v28" fill="none" stroke="#b69b76" opacity="0.25" stroke-width="1"/>
<path d="M132 101l10 9 -10 9 -10 -9zM117 110h30M132 96v28" fill="none" stroke="#b69b76" opacity="0.25" stroke-width="1"/>
<path d="M132 157l10 9 -10 9 -10 -9zM117 166h30M132 152v28" fill="none" stroke="#b69b76" opacity="0.25" stroke-width="1"/>
<path d="M204 45l10 9 -10 9 -10 -9zM189 54h30M204 40v28" fill="none" stroke="#b69b76" opacity="0.25" stroke-width="1"/>
<path d="M204 101l10 9 -10 9 -10 -9zM189 110h30M204 96v28" fill="none" stroke="#b69b76" opacity="0.25" stroke-width="1"/>
<path d="M204 157l10 9 -10 9 -10 -9zM189 166h30M204 152v28" fill="none" stroke="#b69b76" opacity="0.25" stroke-width="1"/>
<path d="M276 45l10 9 -10 9 -10 -9zM261 54h30M276 40v28" fill="none" stroke="#b69b76" opacity="0.25" stroke-width="1"/>
<path d="M276 101l10 9 -10 9 -10 -9zM261 110h30M276 96v28" fill="none" stroke="#b69b76" opacity="0.25" stroke-width="1"/>
<path d="M276 157l10 9 -10 9 -10 -9zM261 166h30M276 152v28" fill="none" stroke="#b69b76" opacity="0.25" stroke-width="1"/>
<path d="M180 42l98 68-98 68-98-68z" fill="#333940" stroke="#b69b76" stroke-width="2"/>
<path d="M180 57l77 53-77 53-77-53zM180 76l48 34-48 34-48-34z" fill="none" stroke="#b69b76" opacity="0.75" stroke-width="1.5"/>
<path d="M0 1h360" fill="none" stroke="#dec6a0" opacity="0.055" stroke-width="0.6"/>
<path d="M0 4h360" fill="none" stroke="#dec6a0" opacity="0.055" stroke-width="0.6"/>
<path d="M0 7h360" fill="none" stroke="#dec6a0" opacity="0.055" stroke-width="0.6"/>
<path d="M0 10h360" fill="none" stroke="#dec6a0" opacity="0.055" stroke-width="0.6"/>
<path d="M0 13h360" fill="none" stroke="#dec6a0" opacity="0.055" stroke-width="0.6"/>
<path d="M0 16h360" fill="none" stroke="#dec6a0" opacity="0.055" stroke-width="0.6"/>
<path d="M0 19h360" fill="none" stroke="#dec6a0" opacity="0.055" stroke-width="0.6"/>
<path d="M0 22h360" fill="none" stroke="#dec6a0" opacity="0.055" stroke-width="0.6"/>
<path d="M0 25h360" fill="none" stroke="#dec6a0" opacity="0.055" stroke-width="0.6"/>
<path d="M0 28h360" fill="none" stroke="#dec6a0" opacity="0.055" stroke-width="0.6"/>
<path d="M0 31h360" fill="none" stroke="#dec6a0" opacity="0.055" stroke-width="0.6"/>
<path d="M0 34h360" fill="none" stroke="#dec6a0" opacity="0.055" stroke-width="0.6"/>
<path d="M0 37h360" fill="none" stroke="#dec6a0" opacity="0.055" stroke-width="0.6"/>
<path d="M0 40h360" fill="none" stroke="#dec6a0" opacity="0.055" stroke-width="0.6"/>
<path d="M0 43h360" fill="none" stroke="#dec6a0" opacity="0.055" stroke-width="0.6"/>
<path d="M0 46h360" fill="none" stroke="#dec6a0" opacity="0.055" stroke-width="0.6"/>
<path d="M0 49h360" fill="none" stroke="#dec6a0" opacity="0.055" stroke-width="0.6"/>
<path d="M0 52h360" fill="none" stroke="#dec6a0" opacity="0.055" stroke-width="0.6"/>
<path d="M0 55h360" fill="none" stroke="#dec6a0" opacity="0.055" stroke-width="0.6"/>
<path d="M0 58h360" fill="none" stroke="#dec6a0" opacity="0.055" stroke-width="0.6"/>
<path d="M0 61h360" fill="none" stroke="#dec6a0" opacity="0.055" stroke-width="0.6"/>
<path d="M0 64h360" fill="none" stroke="#dec6a0" opacity="0.055" stroke-width="0.6"/>
<path d="M0 67h360" fill="none" stroke="#dec6a0" opacity="0.055" stroke-width="0.6"/>
<path d="M0 70h360" fill="none" stroke="#dec6a0" opacity="0.055" stroke-width="0.6"/>
<path d="M0 73h360" fill="none" stroke="#dec6a0" opacity="0.055" stroke-width="0.6"/>
<path d="M0 76h360" fill="none" stroke="#dec6a0" opacity="0.055" stroke-width="0.6"/>
<path d="M0 79h360" fill="none" stroke="#dec6a0" opacity="0.055" stroke-width="0.6"/>
<path d="M0 82h360" fill="none" stroke="#dec6a0" opacity="0.055" stroke-width="0.6"/>
<path d="M0 85h360" fill="none" stroke="#dec6a0" opacity="0.055" stroke-width="0.6"/>
<path d="M0 88h360" fill="none" stroke="#dec6a0" opacity="0.055" stroke-width="0.6"/>
<path d="M0 91h360" fill="none" stroke="#dec6a0" opacity="0.055" stroke-width="0.6"/>
<path d="M0 94h360" fill="none" stroke="#dec6a0" opacity="0.055" stroke-width="0.6"/>
<path d="M0 97h360" fill="none" stroke="#dec6a0" opacity="0.055" stroke-width="0.6"/>
<path d="M0 100h360" fill="none" stroke="#dec6a0" opacity="0.055" stroke-width="0.6"/>
<path d="M0 103h360" fill="none" stroke="#dec6a0" opacity="0.055" stroke-width="0.6"/>
<path d="M0 106h360" fill="none" stroke="#dec6a0" opacity="0.055" stroke-width="0.6"/>
<path d="M0 109h360" fill="none" stroke="#dec6a0" opacity="0.055" stroke-width="0.6"/>
<path d="M0 112h360" fill="none" stroke="#dec6a0" opacity="0.055" stroke-width="0.6"/>
<path d="M0 115h360" fill="none" stroke="#dec6a0" opacity="0.055" stroke-width="0.6"/>
<path d="M0 118h360" fill="none" stroke="#dec6a0" opacity="0.055" stroke-width="0.6"/>
<path d="M0 121h360" fill="none" stroke="#dec6a0" opacity="0.055" stroke-width="0.6"/>
<path d="M0 124h360" fill="none" stroke="#dec6a0" opacity="0.055" stroke-width="0.6"/>
<path d="M0 127h360" fill="none" stroke="#dec6a0" opacity="0.055" stroke-width="0.6"/>
<path d="M0 130h360" fill="none" stroke="#dec6a0" opacity="0.055" stroke-width="0.6"/>
<path d="M0 133h360" fill="none" stroke="#dec6a0" opacity="0.055" stroke-width="0.6"/>
<path d="M0 136h360" fill="none" stroke="#dec6a0" opacity="0.055" stroke-width="0.6"/>
<path d="M0 139h360" fill="none" stroke="#dec6a0" opacity="0.055" stroke-width="0.6"/>
<path d="M0 142h360" fill="none" stroke="#dec6a0" opacity="0.055" stroke-width="0.6"/>
<path d="M0 145h360" fill="none" stroke="#dec6a0" opacity="0.055" stroke-width="0.6"/>
<path d="M0 148h360" fill="none" stroke="#dec6a0" opacity="0.055" stroke-width="0.6"/>
<path d="M0 151h360" fill="none" stroke="#dec6a0" opacity="0.055" stroke-width="0.6"/>
<path d="M0 154h360" fill="none" stroke="#dec6a0" opacity="0.055" stroke-width="0.6"/>
<path d="M0 157h360" fill="none" stroke="#dec6a0" opacity="0.055" stroke-width="0.6"/>
<path d="M0 160h360" fill="none" stroke="#dec6a0" opacity="0.055" stroke-width="0.6"/>
<path d="M0 163h360" fill="none" stroke="#dec6a0" opacity="0.055" stroke-width="0.6"/>
<path d="M0 166h360" fill="none" stroke="#dec6a0" opacity="0.055" stroke-width="0.6"/>
<path d="M0 169h360" fill="none" stroke="#dec6a0" opacity="0.055" stroke-width="0.6"/>
<path d="M0 172h360" fill="none" stroke="#dec6a0" opacity="0.055" stroke-width="0.6"/>
<path d="M0 175h360" fill="none" stroke="#dec6a0" opacity="0.055" stroke-width="0.6"/>
<path d="M0 178h360" fill="none" stroke="#dec6a0" opacity="0.055" stroke-width="0.6"/>
<path d="M0 181h360" fill="none" stroke="#dec6a0" opacity="0.055" stroke-width="0.6"/>
<path d="M0 184h360" fill="none" stroke="#dec6a0" opacity="0.055" stroke-width="0.6"/>
<path d="M0 187h360" fill="none" stroke="#dec6a0" opacity="0.055" stroke-width="0.6"/>
<path d="M0 190h360" fill="none" stroke="#dec6a0" opacity="0.055" stroke-width="0.6"/>
<path d="M0 193h360" fill="none" stroke="#dec6a0" opacity="0.055" stroke-width="0.6"/>
<path d="M0 196h360" fill="none" stroke="#dec6a0" opacity="0.055" stroke-width="0.6"/>
<path d="M0 199h360" fill="none" stroke="#dec6a0" opacity="0.055" stroke-width="0.6"/>
<path d="M0 202h360" fill="none" stroke="#dec6a0" opacity="0.055" stroke-width="0.6"/>
<path d="M0 205h360" fill="none" stroke="#dec6a0" opacity="0.055" stroke-width="0.6"/>
<path d="M0 208h360" fill="none" stroke="#dec6a0" opacity="0.055" stroke-width="0.6"/>
<path d="M0 211h360" fill="none" stroke="#dec6a0" opacity="0.055" stroke-width="0.6"/>
<path d="M0 214h360" fill="none" stroke="#dec6a0" opacity="0.055" stroke-width="0.6"/>
<path d="M0 217h360" fill="none" stroke="#dec6a0" opacity="0.055" stroke-width="0.6"/>
<path d="M1 0v220" fill="none" stroke="#131c28" opacity="0.11" stroke-width="0.7"/>
<path d="M5 0v220" fill="none" stroke="#131c28" opacity="0.11" stroke-width="0.7"/>
<path d="M9 0v220" fill="none" stroke="#131c28" opacity="0.11" stroke-width="0.7"/>
<path d="M13 0v220" fill="none" stroke="#131c28" opacity="0.11" stroke-width="0.7"/>
<path d="M17 0v220" fill="none" stroke="#131c28" opacity="0.11" stroke-width="0.7"/>
<path d="M21 0v220" fill="none" stroke="#131c28" opacity="0.11" stroke-width="0.7"/>
<path d="M25 0v220" fill="none" stroke="#131c28" opacity="0.11" stroke-width="0.7"/>
<path d="M29 0v220" fill="none" stroke="#131c28" opacity="0.11" stroke-width="0.7"/>
<path d="M33 0v220" fill="none" stroke="#131c28" opacity="0.11" stroke-width="0.7"/>
<path d="M37 0v220" fill="none" stroke="#131c28" opacity="0.11" stroke-width="0.7"/>
<path d="M41 0v220" fill="none" stroke="#131c28" opacity="0.11" stroke-width="0.7"/>
<path d="M45 0v220" fill="none" stroke="#131c28" opacity="0.11" stroke-width="0.7"/>
<path d="M49 0v220" fill="none" stroke="#131c28" opacity="0.11" stroke-width="0.7"/>
<path d="M53 0v220" fill="none" stroke="#131c28" opacity="0.11" stroke-width="0.7"/>
<path d="M57 0v220" fill="none" stroke="#131c28" opacity="0.11" stroke-width="0.7"/>
<path d="M61 0v220" fill="none" stroke="#131c28" opacity="0.11" stroke-width="0.7"/>
<path d="M65 0v220" fill="none" stroke="#131c28" opacity="0.11" stroke-width="0.7"/>
<path d="M69 0v220" fill="none" stroke="#131c28" opacity="0.11" stroke-width="0.7"/>
<path d="M73 0v220" fill="none" stroke="#131c28" opacity="0.11" stroke-width="0.7"/>
<path d="M77 0v220" fill="none" stroke="#131c28" opacity="0.11" stroke-width="0.7"/>
<path d="M81 0v220" fill="none" stroke="#131c28" opacity="0.11" stroke-width="0.7"/>
<path d="M85 0v220" fill="none" stroke="#131c28" opacity="0.11" stroke-width="0.7"/>
<path d="M89 0v220" fill="none" stroke="#131c28" opacity="0.11" stroke-width="0.7"/>
<path d="M93 0v220" fill="none" stroke="#131c28" opacity="0.11" stroke-width="0.7"/>
<path d="M97 0v220" fill="none" stroke="#131c28" opacity="0.11" stroke-width="0.7"/>
<path d="M101 0v220" fill="none" stroke="#131c28" opacity="0.11" stroke-width="0.7"/>
<path d="M105 0v220" fill="none" stroke="#131c28" opacity="0.11" stroke-width="0.7"/>
<path d="M109 0v220" fill="none" stroke="#131c28" opacity="0.11" stroke-width="0.7"/>
<path d="M113 0v220" fill="none" stroke="#131c28" opacity="0.11" stroke-width="0.7"/>
<path d="M117 0v220" fill="none" stroke="#131c28" opacity="0.11" stroke-width="0.7"/>
<path d="M121 0v220" fill="none" stroke="#131c28" opacity="0.11" stroke-width="0.7"/>
<path d="M125 0v220" fill="none" stroke="#131c28" opacity="0.11" stroke-width="0.7"/>
<path d="M129 0v220" fill="none" stroke="#131c28" opacity="0.11" stroke-width="0.7"/>
<path d="M133 0v220" fill="none" stroke="#131c28" opacity="0.11" stroke-width="0.7"/>
<path d="M137 0v220" fill="none" stroke="#131c28" opacity="0.11" stroke-width="0.7"/>
<path d="M141 0v220" fill="none" stroke="#131c28" opacity="0.11" stroke-width="0.7"/>
<path d="M145 0v220" fill="none" stroke="#131c28" opacity="0.11" stroke-width="0.7"/>
<path d="M149 0v220" fill="none" stroke="#131c28" opacity="0.11" stroke-width="0.7"/>
<path d="M153 0v220" fill="none" stroke="#131c28" opacity="0.11" stroke-width="0.7"/>
<path d="M157 0v220" fill="none" stroke="#131c28" opacity="0.11" stroke-width="0.7"/>
<path d="M161 0v220" fill="none" stroke="#131c28" opacity="0.11" stroke-width="0.7"/>
<path d="M165 0v220" fill="none" stroke="#131c28" opacity="0.11" stroke-width="0.7"/>
<path d="M169 0v220" fill="none" stroke="#131c28" opacity="0.11" stroke-width="0.7"/>
<path d="M173 0v220" fill="none" stroke="#131c28" opacity="0.11" stroke-width="0.7"/>
<path d="M177 0v220" fill="none" stroke="#131c28" opacity="0.11" stroke-width="0.7"/>
<path d="M181 0v220" fill="none" stroke="#131c28" opacity="0.11" stroke-width="0.7"/>
<path d="M185 0v220" fill="none" stroke="#131c28" opacity="0.11" stroke-width="0.7"/>
<path d="M189 0v220" fill="none" stroke="#131c28" opacity="0.11" stroke-width="0.7"/>
<path d="M193 0v220" fill="none" stroke="#131c28" opacity="0.11" stroke-width="0.7"/>
<path d="M197 0v220" fill="none" stroke="#131c28" opacity="0.11" stroke-width="0.7"/>
<path d="M201 0v220" fill="none" stroke="#131c28" opacity="0.11" stroke-width="0.7"/>
<path d="M205 0v220" fill="none" stroke="#131c28" opacity="0.11" stroke-width="0.7"/>
<path d="M209 0v220" fill="none" stroke="#131c28" opacity="0.11" stroke-width="0.7"/>
<path d="M213 0v220" fill="none" stroke="#131c28" opacity="0.11" stroke-width="0.7"/>
<path d="M217 0v220" fill="none" stroke="#131c28" opacity="0.11" stroke-width="0.7"/>
<path d="M221 0v220" fill="none" stroke="#131c28" opacity="0.11" stroke-width="0.7"/>
<path d="M225 0v220" fill="none" stroke="#131c28" opacity="0.11" stroke-width="0.7"/>
<path d="M229 0v220" fill="none" stroke="#131c28" opacity="0.11" stroke-width="0.7"/>
<path d="M233 0v220" fill="none" stroke="#131c28" opacity="0.11" stroke-width="0.7"/>
<path d="M237 0v220" fill="none" stroke="#131c28" opacity="0.11" stroke-width="0.7"/>
<path d="M241 0v220" fill="none" stroke="#131c28" opacity="0.11" stroke-width="0.7"/>
<path d="M245 0v220" fill="none" stroke="#131c28" opacity="0.11" stroke-width="0.7"/>
<path d="M249 0v220" fill="none" stroke="#131c28" opacity="0.11" stroke-width="0.7"/>
<path d="M253 0v220" fill="none" stroke="#131c28" opacity="0.11" stroke-width="0.7"/>
<path d="M257 0v220" fill="none" stroke="#131c28" opacity="0.11" stroke-width="0.7"/>
<path d="M261 0v220" fill="none" stroke="#131c28" opacity="0.11" stroke-width="0.7"/>
<path d="M265 0v220" fill="none" stroke="#131c28" opacity="0.11" stroke-width="0.7"/>
<path d="M269 0v220" fill="none" stroke="#131c28" opacity="0.11" stroke-width="0.7"/>
<path d="M273 0v220" fill="none" stroke="#131c28" opacity="0.11" stroke-width="0.7"/>
<path d="M277 0v220" fill="none" stroke="#131c28" opacity="0.11" stroke-width="0.7"/>
<path d="M281 0v220" fill="none" stroke="#131c28" opacity="0.11" stroke-width="0.7"/>
<path d="M285 0v220" fill="none" stroke="#131c28" opacity="0.11" stroke-width="0.7"/>
<path d="M289 0v220" fill="none" stroke="#131c28" opacity="0.11" stroke-width="0.7"/>
<path d="M293 0v220" fill="none" stroke="#131c28" opacity="0.11" stroke-width="0.7"/>
<path d="M297 0v220" fill="none" stroke="#131c28" opacity="0.11" stroke-width="0.7"/>
<path d="M301 0v220" fill="none" stroke="#131c28" opacity="0.11" stroke-width="0.7"/>
<path d="M305 0v220" fill="none" stroke="#131c28" opacity="0.11" stroke-width="0.7"/>
<path d="M309 0v220" fill="none" stroke="#131c28" opacity="0.11" stroke-width="0.7"/>
<path d="M313 0v220" fill="none" stroke="#131c28" opacity="0.11" stroke-width="0.7"/>
<path d="M317 0v220" fill="none" stroke="#131c28" opacity="0.11" stroke-width="0.7"/>
<path d="M321 0v220" fill="none" stroke="#131c28" opacity="0.11" stroke-width="0.7"/>
<path d="M325 0v220" fill="none" stroke="#131c28" opacity="0.11" stroke-width="0.7"/>
<path d="M329 0v220" fill="none" stroke="#131c28" opacity="0.11" stroke-width="0.7"/>
<path d="M333 0v220" fill="none" stroke="#131c28" opacity="0.11" stroke-width="0.7"/>
<path d="M337 0v220" fill="none" stroke="#131c28" opacity="0.11" stroke-width="0.7"/>
<path d="M341 0v220" fill="none" stroke="#131c28" opacity="0.11" stroke-width="0.7"/>
<path d="M345 0v220" fill="none" stroke="#131c28" opacity="0.11" stroke-width="0.7"/>
<path d="M349 0v220" fill="none" stroke="#131c28" opacity="0.11" stroke-width="0.7"/>
<path d="M353 0v220" fill="none" stroke="#131c28" opacity="0.11" stroke-width="0.7"/>
<path d="M357 0v220" fill="none" stroke="#131c28" opacity="0.11" stroke-width="0.7"/>
<path d="M263 3h2" fill="none" stroke="#c8b18b" opacity="0.12" stroke-width="0.6"/>
<path d="M109 96h8" fill="none" stroke="#c8b18b" opacity="0.12" stroke-width="0.6"/>
<path d="M46 21h2" fill="none" stroke="#c8b18b" opacity="0.12" stroke-width="0.6"/>
<path d="M143 168h5" fill="none" stroke="#c8b18b" opacity="0.12" stroke-width="0.6"/>
<path d="M233 1h4" fill="none" stroke="#c8b18b" opacity="0.12" stroke-width="0.6"/>
<path d="M207 113h6" fill="none" stroke="#c8b18b" opacity="0.12" stroke-width="0.6"/>
<path d="M120 24h3" fill="none" stroke="#c8b18b" opacity="0.12" stroke-width="0.6"/>
<path d="M340 141h4" fill="none" stroke="#c8b18b" opacity="0.12" stroke-width="0.6"/>
<path d="M138 114h7" fill="none" stroke="#c8b18b" opacity="0.12" stroke-width="0.6"/>
<path d="M319 36h8" fill="none" stroke="#c8b18b" opacity="0.12" stroke-width="0.6"/>
<path d="M359 173h7" fill="none" stroke="#c8b18b" opacity="0.12" stroke-width="0.6"/>
<path d="M219 165h3" fill="none" stroke="#c8b18b" opacity="0.12" stroke-width="0.6"/>
<path d="M178 177h7" fill="none" stroke="#c8b18b" opacity="0.12" stroke-width="0.6"/>
<path d="M13 176h6" fill="none" stroke="#c8b18b" opacity="0.12" stroke-width="0.6"/>
<path d="M280 10h7" fill="none" stroke="#c8b18b" opacity="0.12" stroke-width="0.6"/>
<path d="M299 135h2" fill="none" stroke="#c8b18b" opacity="0.12" stroke-width="0.6"/>
<path d="M104 184h7" fill="none" stroke="#c8b18b" opacity="0.12" stroke-width="0.6"/>
<path d="M269 95h4" fill="none" stroke="#c8b18b" opacity="0.12" stroke-width="0.6"/>
<path d="M186 175h2" fill="none" stroke="#c8b18b" opacity="0.12" stroke-width="0.6"/>
<path d="M116 214h4" fill="none" stroke="#c8b18b" opacity="0.12" stroke-width="0.6"/>
<path d="M84 112h9" fill="none" stroke="#c8b18b" opacity="0.12" stroke-width="0.6"/>
<path d="M273 5h4" fill="none" stroke="#c8b18b" opacity="0.12" stroke-width="0.6"/>
<path d="M122 49h2" fill="none" stroke="#c8b18b" opacity="0.12" stroke-width="0.6"/>
<path d="M207 208h9" fill="none" stroke="#c8b18b" opacity="0.12" stroke-width="0.6"/>
<path d="M50 8h8" fill="none" stroke="#c8b18b" opacity="0.12" stroke-width="0.6"/>
<path d="M43 55h6" fill="none" stroke="#c8b18b" opacity="0.12" stroke-width="0.6"/>
<path d="M79 21h7" fill="none" stroke="#c8b18b" opacity="0.12" stroke-width="0.6"/>
<path d="M127 167h2" fill="none" stroke="#c8b18b" opacity="0.12" stroke-width="0.6"/>
<path d="M235 14h9" fill="none" stroke="#c8b18b" opacity="0.12" stroke-width="0.6"/>
<path d="M117 144h5" fill="none" stroke="#c8b18b" opacity="0.12" stroke-width="0.6"/>
<path d="M18 60h2" fill="none" stroke="#c8b18b" opacity="0.12" stroke-width="0.6"/>
<path d="M51 62h2" fill="none" stroke="#c8b18b" opacity="0.12" stroke-width="0.6"/>
<path d="M256 93h7" fill="none" stroke="#c8b18b" opacity="0.12" stroke-width="0.6"/>
<path d="M229 44h6" fill="none" stroke="#c8b18b" opacity="0.12" stroke-width="0.6"/>
<path d="M209 197h4" fill="none" stroke="#c8b18b" opacity="0.12" stroke-width="0.6"/>
<path d="M214 120h8" fill="none" stroke="#c8b18b" opacity="0.12" stroke-width="0.6"/>
<path d="M71 33h7" fill="none" stroke="#c8b18b" opacity="0.12" stroke-width="0.6"/>
<path d="M10 150h9" fill="none" stroke="#c8b18b" opacity="0.12" stroke-width="0.6"/>
<path d="M208 147h8" fill="none" stroke="#c8b18b" opacity="0.12" stroke-width="0.6"/>
<path d="M356 4h8" fill="none" stroke="#c8b18b" opacity="0.12" stroke-width="0.6"/>
<path d="M48 141h4" fill="none" stroke="#c8b18b" opacity="0.12" stroke-width="0.6"/>
<path d="M16 165h7" fill="none" stroke="#c8b18b" opacity="0.12" stroke-width="0.6"/>
<path d="M244 140h9" fill="none" stroke="#c8b18b" opacity="0.12" stroke-width="0.6"/>
<path d="M356 28h5" fill="none" stroke="#c8b18b" opacity="0.12" stroke-width="0.6"/>
<path d="M224 96h8" fill="none" stroke="#c8b18b" opacity="0.12" stroke-width="0.6"/>
<path d="M337 79h6" fill="none" stroke="#c8b18b" opacity="0.12" stroke-width="0.6"/>
<path d="M53 155h7" fill="none" stroke="#c8b18b" opacity="0.12" stroke-width="0.6"/>
<path d="M28 153h4" fill="none" stroke="#c8b18b" opacity="0.12" stroke-width="0.6"/>
<path d="M324 95h2" fill="none" stroke="#c8b18b" opacity="0.12" stroke-width="0.6"/>
<path d="M165 107h8" fill="none" stroke="#c8b18b" opacity="0.12" stroke-width="0.6"/>
<path d="M295 23h4" fill="none" stroke="#c8b18b" opacity="0.12" stroke-width="0.6"/>
<path d="M227 32h6" fill="none" stroke="#c8b18b" opacity="0.12" stroke-width="0.6"/>
<path d="M340 59h2" fill="none" stroke="#c8b18b" opacity="0.12" stroke-width="0.6"/>
<path d="M310 202h4" fill="none" stroke="#c8b18b" opacity="0.12" stroke-width="0.6"/>
<path d="M223 132h8" fill="none" stroke="#c8b18b" opacity="0.12" stroke-width="0.6"/>
<path d="M23 89h4" fill="none" stroke="#c8b18b" opacity="0.12" stroke-width="0.6"/>
<path d="M205 215h6" fill="none" stroke="#c8b18b" opacity="0.12" stroke-width="0.6"/>
<path d="M170 137h4" fill="none" stroke="#c8b18b" opacity="0.12" stroke-width="0.6"/>
<path d="M331 20h8" fill="none" stroke="#c8b18b" opacity="0.12" stroke-width="0.6"/>
<path d="M238 63h8" fill="none" stroke="#c8b18b" opacity="0.12" stroke-width="0.6"/>
<path d="M8 108h9" fill="none" stroke="#c8b18b" opacity="0.12" stroke-width="0.6"/>
<path d="M231 55h5" fill="none" stroke="#c8b18b" opacity="0.12" stroke-width="0.6"/>
<path d="M28 215h2" fill="none" stroke="#c8b18b" opacity="0.12" stroke-width="0.6"/>
<path d="M6 127h3" fill="none" stroke="#c8b18b" opacity="0.12" stroke-width="0.6"/>
<path d="M233 110h4" fill="none" stroke="#c8b18b" opacity="0.12" stroke-width="0.6"/>
<path d="M257 90h3" fill="none" stroke="#c8b18b" opacity="0.12" stroke-width="0.6"/>
<path d="M312 112h8" fill="none" stroke="#c8b18b" opacity="0.12" stroke-width="0.6"/>
<path d="M327 55h3" fill="none" stroke="#c8b18b" opacity="0.12" stroke-width="0.6"/>
<path d="M101 167h4" fill="none" stroke="#c8b18b" opacity="0.12" stroke-width="0.6"/>
<path d="M125 43h8" fill="none" stroke="#c8b18b" opacity="0.12" stroke-width="0.6"/>
<path d="M93 72h5" fill="none" stroke="#c8b18b" opacity="0.12" stroke-width="0.6"/>
<path d="M305 209h8" fill="none" stroke="#c8b18b" opacity="0.12" stroke-width="0.6"/>
<path d="M146 5h6" fill="none" stroke="#c8b18b" opacity="0.12" stroke-width="0.6"/>
<path d="M223 173h9" fill="none" stroke="#c8b18b" opacity="0.12" stroke-width="0.6"/>
<path d="M26 125h5" fill="none" stroke="#c8b18b" opacity="0.12" stroke-width="0.6"/>
<path d="M288 36h4" fill="none" stroke="#c8b18b" opacity="0.12" stroke-width="0.6"/>
<path d="M186 169h7" fill="none" stroke="#c8b18b" opacity="0.12" stroke-width="0.6"/>
<path d="M283 32h6" fill="none" stroke="#c8b18b" opacity="0.12" stroke-width="0.6"/>
<path d="M207 152h3" fill="none" stroke="#c8b18b" opacity="0.12" stroke-width="0.6"/>
<path d="M338 88h7" fill="none" stroke="#c8b18b" opacity="0.12" stroke-width="0.6"/>
<path d="M90 8h5" fill="none" stroke="#c8b18b" opacity="0.12" stroke-width="0.6"/>
<path d="M202 166h7" fill="none" stroke="#c8b18b" opacity="0.12" stroke-width="0.6"/>
<path d="M84 214h8" fill="none" stroke="#c8b18b" opacity="0.12" stroke-width="0.6"/>
<path d="M181 123h5" fill="none" stroke="#c8b18b" opacity="0.12" stroke-width="0.6"/>
<path d="M338 113h7" fill="none" stroke="#c8b18b" opacity="0.12" stroke-width="0.6"/>
<path d="M207 24h3" fill="none" stroke="#c8b18b" opacity="0.12" stroke-width="0.6"/>
<path d="M190 67h5" fill="none" stroke="#c8b18b" opacity="0.12" stroke-width="0.6"/>
<path d="M283 98h3" fill="none" stroke="#c8b18b" opacity="0.12" stroke-width="0.6"/>
<path d="M159 70h2" fill="none" stroke="#c8b18b" opacity="0.12" stroke-width="0.6"/>
<path d="M321 117h7" fill="none" stroke="#c8b18b" opacity="0.12" stroke-width="0.6"/>
<path d="M102 17h6" fill="none" stroke="#c8b18b" opacity="0.12" stroke-width="0.6"/>
<path d="M280 128h2" fill="none" stroke="#c8b18b" opacity="0.12" stroke-width="0.6"/>
<path d="M110 54h2" fill="none" stroke="#c8b18b" opacity="0.12" stroke-width="0.6"/>
<path d="M140 180h7" fill="none" stroke="#c8b18b" opacity="0.12" stroke-width="0.6"/>
<path d="M307 167h6" fill="none" stroke="#c8b18b" opacity="0.12" stroke-width="0.6"/>
<path d="M104 211h9" fill="none" stroke="#c8b18b" opacity="0.12" stroke-width="0.6"/>
<path d="M237 145h9" fill="none" stroke="#c8b18b" opacity="0.12" stroke-width="0.6"/>
<path d="M63 149h8" fill="none" stroke="#c8b18b" opacity="0.12" stroke-width="0.6"/>
<path d="M54 168h9" fill="none" stroke="#c8b18b" opacity="0.12" stroke-width="0.6"/>
<path d="M161 113h2" fill="none" stroke="#c8b18b" opacity="0.12" stroke-width="0.6"/>
<path d="M267 38h7" fill="none" stroke="#c8b18b" opacity="0.12" stroke-width="0.6"/>
<path d="M192 87h3" fill="none" stroke="#c8b18b" opacity="0.12" stroke-width="0.6"/>
<path d="M7 96h7" fill="none" stroke="#c8b18b" opacity="0.12" stroke-width="0.6"/>
<path d="M126 77h6" fill="none" stroke="#c8b18b" opacity="0.12" stroke-width="0.6"/>
<path d="M36 204h5" fill="none" stroke="#c8b18b" opacity="0.12" stroke-width="0.6"/>
<path d="M248 80h4" fill="none" stroke="#c8b18b" opacity="0.12" stroke-width="0.6"/>
<path d="M8 176h4" fill="none" stroke="#c8b18b" opacity="0.12" stroke-width="0.6"/>
<path d="M88 3h4" fill="none" stroke="#c8b18b" opacity="0.12" stroke-width="0.6"/>
<path d="M18 36h2" fill="none" stroke="#c8b18b" opacity="0.12" stroke-width="0.6"/>
<path d="M85 181h6" fill="none" stroke="#c8b18b" opacity="0.12" stroke-width="0.6"/>
<path d="M153 179h3" fill="none" stroke="#c8b18b" opacity="0.12" stroke-width="0.6"/>
<path d="M119 117h5" fill="none" stroke="#c8b18b" opacity="0.12" stroke-width="0.6"/>
<path d="M178 7h6" fill="none" stroke="#c8b18b" opacity="0.12" stroke-width="0.6"/>
<path d="M144 68h8" fill="none" stroke="#c8b18b" opacity="0.12" stroke-width="0.6"/>
<path d="M13 12h3" fill="none" stroke="#c8b18b" opacity="0.12" stroke-width="0.6"/>
<path d="M177 151h7" fill="none" stroke="#c8b18b" opacity="0.12" stroke-width="0.6"/>
<path d="M124 128h7" fill="none" stroke="#c8b18b" opacity="0.12" stroke-width="0.6"/>
<path d="M118 53h5" fill="none" stroke="#c8b18b" opacity="0.12" stroke-width="0.6"/>
<path d="M261 51h6" fill="none" stroke="#c8b18b" opacity="0.12" stroke-width="0.6"/>
<path d="M153 70h5" fill="none" stroke="#c8b18b" opacity="0.12" stroke-width="0.6"/>
<path d="M101 17h5" fill="none" stroke="#c8b18b" opacity="0.12" stroke-width="0.6"/>
<path d="M356 146h5" fill="none" stroke="#c8b18b" opacity="0.12" stroke-width="0.6"/>
<path d="M150 125h9" fill="none" stroke="#c8b18b" opacity="0.12" stroke-width="0.6"/>
<path d="M96 129h2" fill="none" stroke="#c8b18b" opacity="0.12" stroke-width="0.6"/>
<path d="M326 89h4" fill="none" stroke="#c8b18b" opacity="0.12" stroke-width="0.6"/>
<path d="M125 69h6" fill="none" stroke="#c8b18b" opacity="0.12" stroke-width="0.6"/>
<path d="M320 120h2" fill="none" stroke="#c8b18b" opacity="0.12" stroke-width="0.6"/>
<path d="M139 82h9" fill="none" stroke="#c8b18b" opacity="0.12" stroke-width="0.6"/>
<path d="M2 48h7" fill="none" stroke="#c8b18b" opacity="0.12" stroke-width="0.6"/>
<path d="M240 40h9" fill="none" stroke="#c8b18b" opacity="0.12" stroke-width="0.6"/>
<path d="M231 24h5" fill="none" stroke="#c8b18b" opacity="0.12" stroke-width="0.6"/>
<path d="M122 208h3" fill="none" stroke="#c8b18b" opacity="0.12" stroke-width="0.6"/>
<path d="M220 18h3" fill="none" stroke="#c8b18b" opacity="0.12" stroke-width="0.6"/>
<path d="M79 162h6" fill="none" stroke="#c8b18b" opacity="0.12" stroke-width="0.6"/>
<path d="M112 9h4" fill="none" stroke="#c8b18b" opacity="0.12" stroke-width="0.6"/>
<path d="M354 132h4" fill="none" stroke="#c8b18b" opacity="0.12" stroke-width="0.6"/>
<path d="M183 26h3" fill="none" stroke="#c8b18b" opacity="0.12" stroke-width="0.6"/>
<path d="M145 206h4" fill="none" stroke="#c8b18b" opacity="0.12" stroke-width="0.6"/>
<path d="M318 38h7" fill="none" stroke="#c8b18b" opacity="0.12" stroke-width="0.6"/>
<path d="M148 32h6" fill="none" stroke="#c8b18b" opacity="0.12" stroke-width="0.6"/>
<path d="M126 147h6" fill="none" stroke="#c8b18b" opacity="0.12" stroke-width="0.6"/>
<path d="M236 65h5" fill="none" stroke="#c8b18b" opacity="0.12" stroke-width="0.6"/>
<path d="M140 179h3" fill="none" stroke="#c8b18b" opacity="0.12" stroke-width="0.6"/>
<path d="M191 114h7" fill="none" stroke="#c8b18b" opacity="0.12" stroke-width="0.6"/>
<path d="M84 68h6" fill="none" stroke="#c8b18b" opacity="0.12" stroke-width="0.6"/>
<path d="M174 202h5" fill="none" stroke="#c8b18b" opacity="0.12" stroke-width="0.6"/>
<path d="M117 117h6" fill="none" stroke="#c8b18b" opacity="0.12" stroke-width="0.6"/>
<path d="M88 191h9" fill="none" stroke="#c8b18b" opacity="0.12" stroke-width="0.6"/>
<path d="M218 6h7" fill="none" stroke="#c8b18b" opacity="0.12" stroke-width="0.6"/>
<path d="M306 50h8" fill="none" stroke="#c8b18b" opacity="0.12" stroke-width="0.6"/>
<path d="M282 165h9" fill="none" stroke="#c8b18b" opacity="0.12" stroke-width="0.6"/>
<path d="M190 118h7" fill="none" stroke="#c8b18b" opacity="0.12" stroke-width="0.6"/>
<path d="M202 168h3" fill="none" stroke="#c8b18b" opacity="0.12" stroke-width="0.6"/>
<path d="M155 175h5" fill="none" stroke="#c8b18b" opacity="0.12" stroke-width="0.6"/>
<path d="M278 213h5" fill="none" stroke="#c8b18b" opacity="0.12" stroke-width="0.6"/>
<path d="M266 73h4" fill="none" stroke="#c8b18b" opacity="0.12" stroke-width="0.6"/>
<path d="M344 19h6" fill="none" stroke="#c8b18b" opacity="0.12" stroke-width="0.6"/>
<path d="M172 103h7" fill="none" stroke="#c8b18b" opacity="0.12" stroke-width="0.6"/>
<path d="M34 189h2" fill="none" stroke="#c8b18b" opacity="0.12" stroke-width="0.6"/>
<path d="M80 24h2" fill="none" stroke="#c8b18b" opacity="0.12" stroke-width="0.6"/>
<path d="M148 43h8" fill="none" stroke="#c8b18b" opacity="0.12" stroke-width="0.6"/>
<path d="M167 183h9" fill="none" stroke="#c8b18b" opacity="0.12" stroke-width="0.6"/>
<path d="M178 25h4" fill="none" stroke="#c8b18b" opacity="0.12" stroke-width="0.6"/>
<path d="M290 211h7" fill="none" stroke="#c8b18b" opacity="0.12" stroke-width="0.6"/>
<path d="M67 110h6" fill="none" stroke="#c8b18b" opacity="0.12" stroke-width="0.6"/>
<path d="M281 161h6" fill="none" stroke="#c8b18b" opacity="0.12" stroke-width="0.6"/>
<path d="M188 115h8" fill="none" stroke="#c8b18b" opacity="0.12" stroke-width="0.6"/>
<path d="M59 110h3" fill="none" stroke="#c8b18b" opacity="0.12" stroke-width="0.6"/>
<path d="M118 160h6" fill="none" stroke="#c8b18b" opacity="0.12" stroke-width="0.6"/>
<path d="M167 102h2" fill="none" stroke="#c8b18b" opacity="0.12" stroke-width="0.6"/>
<path d="M136 186h9" fill="none" stroke="#c8b18b" opacity="0.12" stroke-width="0.6"/>
<path d="M152 198h6" fill="none" stroke="#c8b18b" opacity="0.12" stroke-width="0.6"/>
<path d="M116 196h8" fill="none" stroke="#c8b18b" opacity="0.12" stroke-width="0.6"/>
<path d="M66 151h6" fill="none" stroke="#c8b18b" opacity="0.12" stroke-width="0.6"/>
<path d="M289 74h7" fill="none" stroke="#c8b18b" opacity="0.12" stroke-width="0.6"/>
<path d="M307 119h7" fill="none" stroke="#c8b18b" opacity="0.12" stroke-width="0.6"/>
<path d="M180 36h7" fill="none" stroke="#c8b18b" opacity="0.12" stroke-width="0.6"/>
<path d="M52 42h6" fill="none" stroke="#c8b18b" opacity="0.12" stroke-width="0.6"/>
<path d="M339 140h5" fill="none" stroke="#c8b18b" opacity="0.12" stroke-width="0.6"/>
<path d="M145 99h7" fill="none" stroke="#c8b18b" opacity="0.12" stroke-width="0.6"/>
<path d="M66 218h8" fill="none" stroke="#c8b18b" opacity="0.12" stroke-width="0.6"/>
<path d="M136 72h8" fill="none" stroke="#c8b18b" opacity="0.12" stroke-width="0.6"/>
<path d="M241 64h3" fill="none" stroke="#c8b18b" opacity="0.12" stroke-width="0.6"/>
<path d="M101 122h4" fill="none" stroke="#c8b18b" opacity="0.12" stroke-width="0.6"/>
<path d="M178 133h8" fill="none" stroke="#c8b18b" opacity="0.12" stroke-width="0.6"/>
<path d="M61 89h3" fill="none" stroke="#c8b18b" opacity="0.12" stroke-width="0.6"/>
<path d="M290 134h9" fill="none" stroke="#c8b18b" opacity="0.12" stroke-width="0.6"/>
<path d="M199 31h8" fill="none" stroke="#c8b18b" opacity="0.12" stroke-width="0.6"/>
<path d="M233 197h9" fill="none" stroke="#c8b18b" opacity="0.12" stroke-width="0.6"/>
<path d="M89 41h5" fill="none" stroke="#c8b18b" opacity="0.12" stroke-width="0.6"/>
<path d="M297 130h6" fill="none" stroke="#c8b18b" opacity="0.12" stroke-width="0.6"/>
<path d="M15 119h7" fill="none" stroke="#c8b18b" opacity="0.12" stroke-width="0.6"/>
<path d="M331 212h2" fill="none" stroke="#c8b18b" opacity="0.12" stroke-width="0.6"/>
<path d="M220 58h6" fill="none" stroke="#c8b18b" opacity="0.12" stroke-width="0.6"/>
<path d="M236 133h2" fill="none" stroke="#c8b18b" opacity="0.12" stroke-width="0.6"/>
<path d="M159 183h6" fill="none" stroke="#c8b18b" opacity="0.12" stroke-width="0.6"/>
<path d="M248 91h2" fill="none" stroke="#c8b18b" opacity="0.12" stroke-width="0.6"/>
<path d="M353 65h4" fill="none" stroke="#c8b18b" opacity="0.12" stroke-width="0.6"/>
<path d="M346 199h7" fill="none" stroke="#c8b18b" opacity="0.12" stroke-width="0.6"/>
<path d="M185 26h4" fill="none" stroke="#c8b18b" opacity="0.12" stroke-width="0.6"/>
<path d="M55 59h5" fill="none" stroke="#c8b18b" opacity="0.12" stroke-width="0.6"/>
<path d="M181 187h3" fill="none" stroke="#c8b18b" opacity="0.12" stroke-width="0.6"/>
<path d="M86 43h2" fill="none" stroke="#c8b18b" opacity="0.12" stroke-width="0.6"/>
<path d="M276 148h7" fill="none" stroke="#c8b18b" opacity="0.12" stroke-width="0.6"/>
<path d="M278 52h6" fill="none" stroke="#c8b18b" opacity="0.12" stroke-width="0.6"/>
<path d="M239 138h7" fill="none" stroke="#c8b18b" opacity="0.12" stroke-width="0.6"/>
<path d="M27 93h6" fill="none" stroke="#c8b18b" opacity="0.12" stroke-width="0.6"/>
<path d="M253 37h4" fill="none" stroke="#c8b18b" opacity="0.12" stroke-width="0.6"/>
<path d="M69 41h9" fill="none" stroke="#c8b18b" opacity="0.12" stroke-width="0.6"/>
<path d="M149 68h5" fill="none" stroke="#c8b18b" opacity="0.12" stroke-width="0.6"/>
<path d="M99 135h4" fill="none" stroke="#c8b18b" opacity="0.12" stroke-width="0.6"/>
<path d="M305 138h4" fill="none" stroke="#c8b18b" opacity="0.12" stroke-width="0.6"/>
<path d="M44 90h3" fill="none" stroke="#c8b18b" opacity="0.12" stroke-width="0.6"/>
<path d="M275 165h2" fill="none" stroke="#c8b18b" opacity="0.12" stroke-width="0.6"/>
<path d="M158 144h2" fill="none" stroke="#c8b18b" opacity="0.12" stroke-width="0.6"/>
<path d="M219 126h3" fill="none" stroke="#c8b18b" opacity="0.12" stroke-width="0.6"/>
<path d="M205 4h5" fill="none" stroke="#c8b18b" opacity="0.12" stroke-width="0.6"/>
<path d="M105 147h6" fill="none" stroke="#c8b18b" opacity="0.12" stroke-width="0.6"/>
<path d="M178 214h3" fill="none" stroke="#c8b18b" opacity="0.12" stroke-width="0.6"/>
<path d="M80 135h2" fill="none" stroke="#c8b18b" opacity="0.12" stroke-width="0.6"/>
<path d="M155 90h9" fill="none" stroke="#c8b18b" opacity="0.12" stroke-width="0.6"/>
<path d="M194 109h4" fill="none" stroke="#c8b18b" opacity="0.12" stroke-width="0.6"/>
<path d="M268 35h7" fill="none" stroke="#c8b18b" opacity="0.12" stroke-width="0.6"/>
<path d="M137 209h7" fill="none" stroke="#c8b18b" opacity="0.12" stroke-width="0.6"/>
<path d="M323 3h3" fill="none" stroke="#c8b18b" opacity="0.12" stroke-width="0.6"/>
<path d="M110 21h2" fill="none" stroke="#c8b18b" opacity="0.12" stroke-width="0.6"/>
<path d="M212 134h2" fill="none" stroke="#c8b18b" opacity="0.12" stroke-width="0.6"/>
<path d="M134 6h2" fill="none" stroke="#c8b18b" opacity="0.12" stroke-width="0.6"/>
<path d="M20 118h7" fill="none" stroke="#c8b18b" opacity="0.12" stroke-width="0.6"/>
<path d="M42 16h2" fill="none" stroke="#c8b18b" opacity="0.12" stroke-width="0.6"/>
<path d="M269 107h8" fill="none" stroke="#c8b18b" opacity="0.12" stroke-width="0.6"/>
<path d="M90 121h5" fill="none" stroke="#c8b18b" opacity="0.12" stroke-width="0.6"/>
<path d="M325 101h6" fill="none" stroke="#c8b18b" opacity="0.12" stroke-width="0.6"/>
<path d="M247 68h2" fill="none" stroke="#c8b18b" opacity="0.12" stroke-width="0.6"/>
<path d="M82 37h8" fill="none" stroke="#c8b18b" opacity="0.12" stroke-width="0.6"/>
<path d="M299 143h8" fill="none" stroke="#c8b18b" opacity="0.12" stroke-width="0.6"/>
<path d="M267 48h6" fill="none" stroke="#c8b18b" opacity="0.12" stroke-width="0.6"/>
<path d="M152 33h4" fill="none" stroke="#c8b18b" opacity="0.12" stroke-width="0.6"/>
<path d="M211 187h6" fill="none" stroke="#c8b18b" opacity="0.12" stroke-width="0.6"/>
<path d="M138 215h4" fill="none" stroke="#c8b18b" opacity="0.12" stroke-width="0.6"/>
<path d="M224 202h7" fill="none" stroke="#c8b18b" opacity="0.12" stroke-width="0.6"/>
<path d="M62 82h9" fill="none" stroke="#c8b18b" opacity="0.12" stroke-width="0.6"/>
<path d="M277 87h7" fill="none" stroke="#c8b18b" opacity="0.12" stroke-width="0.6"/>
<path d="M89 152h2" fill="none" stroke="#c8b18b" opacity="0.12" stroke-width="0.6"/>
<path d="M284 72h2" fill="none" stroke="#c8b18b" opacity="0.12" stroke-width="0.6"/>
<path d="M26 215h2" fill="none" stroke="#c8b18b" opacity="0.12" stroke-width="0.6"/>
<path d="M76 46h7" fill="none" stroke="#c8b18b" opacity="0.12" stroke-width="0.6"/>
<path d="M313 139h7" fill="none" stroke="#c8b18b" opacity="0.12" stroke-width="0.6"/>
<path d="M228 83h5" fill="none" stroke="#c8b18b" opacity="0.12" stroke-width="0.6"/>
<path d="M6 47h4" fill="none" stroke="#c8b18b" opacity="0.12" stroke-width="0.6"/>
<path d="M335 177h6" fill="none" stroke="#c8b18b" opacity="0.12" stroke-width="0.6"/>
<path d="M196 14h7" fill="none" stroke="#c8b18b" opacity="0.12" stroke-width="0.6"/>
<path d="M29 143h9" fill="none" stroke="#c8b18b" opacity="0.12" stroke-width="0.6"/>
<path d="M136 36h9" fill="none" stroke="#c8b18b" opacity="0.12" stroke-width="0.6"/>
<path d="M297 27h6" fill="none" stroke="#c8b18b" opacity="0.12" stroke-width="0.6"/>
<path d="M117 115h7" fill="none" stroke="#c8b18b" opacity="0.12" stroke-width="0.6"/>
<path d="M181 95h2" fill="none" stroke="#c8b18b" opacity="0.12" stroke-width="0.6"/>
<path d="M195 146h9" fill="none" stroke="#c8b18b" opacity="0.12" stroke-width="0.6"/>
<path d="M281 112h5" fill="none" stroke="#c8b18b" opacity="0.12" stroke-width="0.6"/>
<path d="M157 6h7" fill="none" stroke="#c8b18b" opacity="0.12" stroke-width="0.6"/>
<path d="M203 204h5" fill="none" stroke="#c8b18b" opacity="0.12" stroke-width="0.6"/>
<path d="M55 160h4" fill="none" stroke="#c8b18b" opacity="0.12" stroke-width="0.6"/>
<path d="M118 111h8" fill="none" stroke="#c8b18b" opacity="0.12" stroke-width="0.6"/>
<path d="M161 169h5" fill="none" stroke="#c8b18b" opacity="0.12" stroke-width="0.6"/>
<path d="M177 64h9" fill="none" stroke="#c8b18b" opacity="0.12" stroke-width="0.6"/>
<path d="M84 61h8" fill="none" stroke="#c8b18b" opacity="0.12" stroke-width="0.6"/>
<path d="M307 185h6" fill="none" stroke="#c8b18b" opacity="0.12" stroke-width="0.6"/>
<path d="M227 55h4" fill="none" stroke="#c8b18b" opacity="0.12" stroke-width="0.6"/>
<path d="M280 140h8" fill="none" stroke="#c8b18b" opacity="0.12" stroke-width="0.6"/>
<path d="M11 174h4" fill="none" stroke="#c8b18b" opacity="0.12" stroke-width="0.6"/>
<path d="M205 137h4" fill="none" stroke="#c8b18b" opacity="0.12" stroke-width="0.6"/>
<path d="M293 36h7" fill="none" stroke="#c8b18b" opacity="0.12" stroke-width="0.6"/>
<path d="M249 94h2" fill="none" stroke="#c8b18b" opacity="0.12" stroke-width="0.6"/>
<path d="M161 114h3" fill="none" stroke="#c8b18b" opacity="0.12" stroke-width="0.6"/>
<path d="M104 124h2" fill="none" stroke="#c8b18b" opacity="0.12" stroke-width="0.6"/>
<path d="M283 133h3" fill="none" stroke="#c8b18b" opacity="0.12" stroke-width="0.6"/>
<path d="M38 136h6" fill="none" stroke="#c8b18b" opacity="0.12" stroke-width="0.6"/>
<path d="M243 64h6" fill="none" stroke="#c8b18b" opacity="0.12" stroke-width="0.6"/>
<path d="M244 89h2" fill="none" stroke="#c8b18b" opacity="0.12" stroke-width="0.6"/>
<path d="M311 0h7" fill="none" stroke="#c8b18b" opacity="0.12" stroke-width="0.6"/>
<path d="M122 84h6" fill="none" stroke="#c8b18b" opacity="0.12" stroke-width="0.6"/>
<path d="M60 167h7" fill="none" stroke="#c8b18b" opacity="0.12" stroke-width="0.6"/>
<path d="M40 175h6" fill="none" stroke="#c8b18b" opacity="0.12" stroke-width="0.6"/>
<path d="M242 209h9" fill="none" stroke="#c8b18b" opacity="0.12" stroke-width="0.6"/>
<path d="M29 180h2" fill="none" stroke="#c8b18b" opacity="0.12" stroke-width="0.6"/>
<path d="M45 71h4" fill="none" stroke="#c8b18b" opacity="0.12" stroke-width="0.6"/>
<path d="M86 118h8" fill="none" stroke="#c8b18b" opacity="0.12" stroke-width="0.6"/>
<path d="M15 128h3" fill="none" stroke="#c8b18b" opacity="0.12" stroke-width="0.6"/>
<path d="M43 2h4" fill="none" stroke="#c8b18b" opacity="0.12" stroke-width="0.6"/>
<path d="M10 57h5" fill="none" stroke="#c8b18b" opacity="0.12" stroke-width="0.6"/>
<path d="M32 26h8" fill="none" stroke="#c8b18b" opacity="0.12" stroke-width="0.6"/>
<path d="M258 198h4" fill="none" stroke="#c8b18b" opacity="0.12" stroke-width="0.6"/>
<path d="M82 120h7" fill="none" stroke="#c8b18b" opacity="0.12" stroke-width="0.6"/>
<path d="M211 35h2" fill="none" stroke="#c8b18b" opacity="0.12" stroke-width="0.6"/>
<path d="M94 32h2" fill="none" stroke="#c8b18b" opacity="0.12" stroke-width="0.6"/>
<path d="M274 35h5" fill="none" stroke="#c8b18b" opacity="0.12" stroke-width="0.6"/>
<path d="M279 80h3" fill="none" stroke="#c8b18b" opacity="0.12" stroke-width="0.6"/>
<path d="M234 187h7" fill="none" stroke="#c8b18b" opacity="0.12" stroke-width="0.6"/>
<path d="M336 171h9" fill="none" stroke="#c8b18b" opacity="0.12" stroke-width="0.6"/>
<path d="M23 100h9" fill="none" stroke="#c8b18b" opacity="0.12" stroke-width="0.6"/>
<path d="M120 6h2" fill="none" stroke="#c8b18b" opacity="0.12" stroke-width="0.6"/>
<path d="M46 121h8" fill="none" stroke="#c8b18b" opacity="0.12" stroke-width="0.6"/>
<path d="M62 20h4" fill="none" stroke="#c8b18b" opacity="0.12" stroke-width="0.6"/>
<path d="M151 144h5" fill="none" stroke="#c8b18b" opacity="0.12" stroke-width="0.6"/>
</svg>
